<?xml version="1.0" encoding="utf-8"?>
<!-- Generator: Adobe Illustrator 28.0.0, SVG Export Plug-In . SVG Version: 6.00 Build 0)  -->
<svg version="1.1" id="_图层_2" xmlns="http://www.w3.org/2000/svg" xmlns:xlink="http://www.w3.org/1999/xlink" x="0px" y="0px"
	 viewBox="0 0 210.3 208.9" style="enable-background:new 0 0 210.3 208.9;" xml:space="preserve">
<style type="text/css">
	.st0{fill:#CCA8EE;}
	.st1{fill:#6D6E82;}
	.st2{fill:#FAF7FA;}
</style>
<path class="st0" d="M117.2,0.6c4.8,0.6,10,1.2,14.9,2.7C172.7,15.8,199.4,42,207.9,84c7.9,38.9-3.8,72.5-33.5,98.9
	c-23.1,20.6-50.7,28.9-81.7,25.1c-37.4-4.5-64.7-24.3-81.7-57.1C-6.9,116.1-3.1,71.3,23,39.4C40.9,17.7,63.5,4.6,91.5,0.9
	c0.6-0.1,2.6-0.3,2.6-0.3C101.6-0.4,109,0,117.2,0.6z"/>
<path class="st1" d="M17.4,142.4c-0.7-3,2.2-5.2,1.8-8.2c-0.4-0.9-0.8-1.9-0.7-2.9c0.1-0.5,0.2-1,0.4-1.5c2-8,3.5-16,4-24.2
	c-0.1-2.1,0.4-4,1-6c1.2-6.8,3-13.5,4.8-20.2c0.9-3.2,1.6-5.7,5.5-2.8c2.5,1.8,4,0,5.3-1.8c1.8-2.4,3.3-4.8,6.9-5.1
	c2.2-0.2,3-2.5,3.4-4.4c0.6-2.4-1.5-1.8-2.7-2.4c-3-1.4-4.3-9.3-2.1-11.8c11.8-13.5,26.6-22.2,43.9-26.8c0.7-0.2,1.4-0.1,2-0.5
	c-0.6,0.4-1.3,0.2-1.9,0.5c-1.8,0.8-3.8,1.3-5.7,1.6c-1.6,0.3-3.8,0.8-3.8-2.1c3.5-3.2,8.1-3.8,12.5-4.4c15-2.1,30-3.1,44.8,1.9
	c2,0.7,4.2,1,5.5,3.1c14,5.5,26,13.6,34.8,26c5.2,7.3,8.8,15.4,11.2,24c1.5,5.5,2.9,13.7,3.8,21.4c0.6,12.9,1.7,25.7,3.5,38.4
	c-0.2,0.2-0.3,0.3-0.5,0.5c-0.8-0.2-1.7-0.4-0.9-1.5c-0.9,0.5-0.2,1.2-0.1,1.7c0.7,2.5,1.6,5,1.6,7.7c-0.1,1.2,0.2,2.4-0.3,3.5
	c-3.1,10-9.7,17.9-16.4,25.6c-6.6,7.7-14.7,13.8-23.4,19.1c-1.6,1-3.6,3.1-4.6-1c-2.1-8.5-2.3-8.4-10.9-6.8c-1,0.2-2,0.2-3,0.3
	c0-2.7,2.3-2.8,4.1-3.3c6.5-1.8,6.4-1.7,5.7-8.6c-0.3-2.9-0.1-5.9-0.2-8.9c0-0.6,0.1-1.3-0.1-1.9c-0.8,0.4-0.8,1.3-1.1,1.9
	c-3.8,7.1-7.1,14.5-12.4,20.7c-0.3,0.3-0.9,0.6-0.9,0.8c0,0.5,0.3,0.5,0.2,0.1c0-0.3,0.1-0.5,0.4-0.7c1.4-1.1,2.7-1.6,4.2-0.2
	c-2,3.6-6.9,3.4-8.9,6.9c0.7,2.2,2.9,1.6,4.4,2.4c2.4,1.2,5.3,1.8,6.5,4.7c-0.6,2.1-2.1,2.1-3.8,1.8c-4.6-1-8.6-3.8-13.3-4.7
	c-1.6-0.3-3.2-0.7-4.8-0.5c1.3,0.5,2.9,0.1,4,1.2c0.2,0.4,0.3,0.9,0.2,1.3c-3,2.1-6.7,1.2-9.9,2.5c-2,0.8-4,1.6-5.7,2.9
	c-0.3,0.3-0.7,0.6-1,0.9c-1.1,0.7-2.5,0.7-3.6,1.6c-3.6-0.3-7.2-0.7-10.9-0.9c-3.3-0.2-2.8-3.2-3.7-5.1c-0.3-0.7-0.7-2.2-0.8-2.2
	c-1.2,0.2-1,1.4-1.3,2.3c-0.4,1.3,0.8,3.9-2.1,3.5c-2.2-0.3-1.8-2.4-2-4c-1-8.2-2-16.4-5.3-24.1c0.3-0.5,0.7-0.8,1.2-1
	c3.5-0.4,6.3,1.5,9.5,2.4c8.9,2.3,17.7,4.1,26.8,1.6c1.3-0.4,2.6-0.4,3.9,0.1c0.5,0.3,1.1,0.7,0.9,1.4c0.8-0.4,0.2-1.1,0.4-1.6
	c7.8-12.6,11.6-26.6,14.5-40.8c1.6-8.1,2.6-16.3,0.9-24.5c-0.1-0.4-0.3-0.9-0.3-1.4c-0.3,0.7,0.3,1.1,0.3,1.8
	c0.9,3.3,0.6,6.7,0.5,10.1c-0.1,1.8-0.6,3.5-2.5,4.3c-1.6,0.3-2.4-0.5-2.6-2c-0.1-0.7,0-1.3-0.1-1.9c-3.6-0.5-7.8,1-10.5-2.7
	c-0.3-0.3-0.9-0.5-1.2-0.1c-0.4,0.6-0.1,1.2,0.1,1.8c0.7,2.3,3.7,4.2,1.2,6.9c-5.7-1.1-6.3-6.1-7.9-10.3c-0.1-1.3,0-2.5,0.6-3.7
	c1.7-2,4.4-0.9,6.4-2.1c1-0.6,2.1-1.1,1.9-2.5c-0.2-1.3-1.3-2.3-2.4-2c-3.1,0.8-6.6,0.1-9.5,1.9c-1.7,1.1-2.8,3.4-5.5,1.9
	c-2.8-1.6-2.1-4-1.7-6.4c0-0.5,0.1-0.9,0.2-1.4c1.8-3.2,5.2-4.1,8.2-5.2c2.4-0.9,2.5-1.7,0.8-3.3c-0.2-0.2-0.4-0.5-0.7-0.7
	c-1.8-1.6-2.4-5.6-5.8-4.4c-2.9,1-2.6,4.6-2.7,6.9c-0.5,9.3-5.1,17.8-4.5,27.3c0.1,1.8-0.8,3.8-3,4c-1.9,0.2-2.9-1.4-3.7-2.9
	c-1.3-2.5-2.1-5.2-2.9-7.9c-0.2-0.5-0.4-1-0.5-1.6c0,0.5,0.2,1,0.4,1.4c1.2,3.8,2,7.7,2.4,11.6c0.1,1.4,0,2.7-1.5,3.3
	c-1.5,0.6-2.6-0.2-3.5-1.2c-1.8-2.2-3.4-4.5-4.8-6.9c1,2.4,2.9,4.6,3,7.3c0.1,2.9,1.9,6.4-2.5,7.9c-0.5-0.1-0.8-0.4-1.1-0.8
	c-0.8-1.1-0.5-3.3-2.9-2.7c-3.4-0.1-4,2.8-5.4,4.9c-3.9-0.9-8.3-6.8-7.8-10.4c0.2-1.3,1-2,2-2.7c1.4-0.9,4.1-0.9,3.1-3.5
	c-0.8-2.3-3.1-1.3-4.8-1.4c-5.2-0.3-3.1,3-2.7,5.5c-0.1,2.3-0.9,4.1-3.1,1.7c-1.9-2-4.2-3.8-4.6-6.9c-0.1-0.4-0.2-0.9-0.3-1.4
	c-0.2-3.3-1.3-6.5-1.2-9.8c0-0.5,0.1-0.9-0.2-1.4c-0.5,0.3-0.4,0.8-0.6,1.2c-2.1,6.7-3.1,12.9,2.4,18.9c4.5,5,8.4,10.6,11.8,16.5
	c0.7,1.3,1.1,2.7,1.3,4.2c0.5,7.4,4.6,13.4,7.9,19.8c-0.1,0.2-0.2,0.4-0.4,0.6c-3.8,2.4-0.9,5.9-1.5,8.9c1.3,5.7,3,11.5-1.1,16.9
	c-4.8-1.2-9.3-2.8-13.1-6c-2.1-2.6-2.4-5.8-2.6-8.9C53.1,169.9,48,159,44,147.7c-0.2-0.4-0.2-0.8-0.2-1.2c-0.9,0.6,0.4,0.8,0.3,1.3
	c0.3,2.6,3,6-0.3,7.5c-3.4,1.5-4.6-2.6-6.3-4.9c-1-1.3-1.6-2.8-2.3-4.3c-1-1.9-1.8-3.8-2-6c0.2,2,0.7,4,0.6,6c0,0.5,0,1,0.1,1.5
	c0.1,2.5,2.1,6-1.4,6.8c-3.1,0.7-4-2.9-4.9-5.3c-1.6-4.4-2.4-8.9-3.1-13.5c-0.2-1.5,0.4-2.9,0.4-4.3c-0.2,1.5-0.4,3-1,4.3
	C22.1,138.3,21.6,142.1,17.4,142.4L17.4,142.4z"/>
<path class="st2" d="M142.1,24.2c-19.4-6.3-39-6.6-58.7-1.4c-1.5,0.4-3.3,0.4-4.3,2c-0.1,0.2-0.3,0.4-0.4,0.5
	c-7,2-13.7,4.9-19.7,9.1c-0.3,0.3-0.7,0.6-1,0.9c-0.3,0.3-0.7,0.5-1.1,0.8c-0.4,0.2-0.8,0.4-1.1,0.6c-1.7,0.5-2.8,1.7-3.9,3.1
	c-0.3,0.3-0.7,0.6-1.1,0.8c-3.7,1.9-6.5,4.7-8.5,8.3c-0.2,0.4-0.4,0.7-0.7,1.1c-0.8,0.8-1.9,1.5-2.2,2.8c-0.2,0.4-0.3,0.7-0.5,1
	c-0.2,0.3-0.4,0.6-0.7,0.9c-0.1,0.1-0.2,0.3-0.4,0.4c-0.2,0.3-0.5,0.6-0.7,0.8c-0.1,0.2-0.2,0.3-0.3,0.4c-0.4,0.6-0.8,1.2-1.3,1.8
	c-0.3,0.5-0.6,0.9-0.9,1.4c-0.2,0.3-0.3,0.7-0.5,1c-0.1,0.2-0.2,0.3-0.2,0.5c-0.2,0.5-0.5,1-0.8,1.5c-0.2,0.3-0.4,0.7-0.6,1
	c-0.6,0.8-1.1,1.7-1.4,2.7c-0.3,0.8-0.5,1.7-0.8,2.6c-2,6.2-4.4,12.2-4.9,18.7c-0.7,2.8-1.4,5.6-1.6,8.4c-1.7,7.6-1.5,15.3-2.9,22.9
	c0.1,2.4-0.8,4.7-1.1,7c0,3.2-3.4,5.6-2.4,9.1c-0.2,0.3-0.4,0.6-0.6,1c-1,0.3-0.9,1.5-1.5,2.1l0.1-0.1c-0.9,0.9-0.9,2.4-2.1,3
	c-7.1-13.6-8.7-28.3-7.6-43.3C6.8,79.2,12.9,62,23.8,46.8C37.5,27.9,55.6,15.2,78.2,8.9C88.3,6.1,98.6,4.7,109.1,5
	c16.6,0.6,31.9,5.4,46.3,13.5c5.7,3.2,10.6,7.2,15.8,11.1c1.1,0.9,3.2,2,2.4,3.3c-1,1.7-2.7-0.1-3.8-0.8c-7.6-4.6-16.4-6.1-24.7-8.7
	C144,23.1,142.9,22.9,142.1,24.2L142.1,24.2z"/>
<path class="st2" d="M17.4,142.4c4-2.4,4.2-7.1,6.6-10.5c0.4-0.6,0.8-1.3,1.2-2c0.2,0.7,0.5,1.4,0.6,2.2c0.5,5.9,1.5,11.7,3.4,17.4
	c0.5,1.6,1.5,4.4,3,3.9c2.5-0.7,0.2-3,0.3-4.6c0-0.5,0.1-1,0.1-1.5c0.9-1.1,1.7-2.6,3.6-2c1.8,2.8,3.5,5.6,5.3,8.3
	c0.5,0.8,1.3,1.8,2.4,1.1c0.4-0.3,0.4-1.5,0.2-2.2c-0.5-2.1-1.2-4.1-0.6-6.3l-0.1,0.1c7,10.6,10.3,22.5,12,34.9
	c0.4,3.2,0.8,6.5,1.2,9.8c-17.8-9.6-31-23.8-40.3-41.6c-0.9-1.8-0.5-3.1,0.3-4.6c0.4-0.8,0.4-1.8,1.1-2.5L17.4,142.4L17.4,142.4z"/>
<path class="st2" d="M104.2,201.9c4.3-6,10.8-5.9,17.3-6c0.2-0.1,0.3-0.2,0.5-0.4c0.2,0,0.4,0,0.6,0c1,0.1,1.9,0.3,2.9,0.5
	c0.4,0.1,0.8,0.2,1.1,0.4c0.5,0.3,1,0.6,1.4,1c0.1,0.2,0.2,0.3,0.3,0.5c0.7,0.8,2,1.7,1.9,2.5c-0.1,1.1-1.7,1.1-2.8,1.4
	c-3.1,0.6-6.1-0.2-9.2-0.7c-3,1.8-6.4,0.9-9.7,1.4c-0.5,0.1-1,0.2-1.5,0.3C106,202.9,104.9,202.8,104.2,201.9L104.2,201.9z"/>
<path class="st2" d="M139.2,196.9c-3.6-2.3-7.3-4.1-11.4-5.1c-0.7-0.2-2.3,0.4-1.7-1.2c0.2-0.4,1.4-0.4,2.2-0.7
	c4.9-0.2,9.8-0.9,14.4,1.8c1.4,0.8,3.8,1.5,3.6,2.9c-0.3,1.8-2.7,2.1-4.5,2.3C140.9,197,140.1,196.9,139.2,196.9L139.2,196.9z"/>
<path class="st2" d="M69.5,197c0.4-5.6,0.8-11.2,1.1-16.9c2.7,1.9,3.4,4.9,3.7,7.9c0.2,1.9-0.3,4,0.1,5.9
	C75.8,200.1,73.2,199.3,69.5,197L69.5,197z"/>
<path class="st2" d="M121.3,195.1c-1.7-0.1-3.3,0.1-4.9-0.2c-1.3-0.2-3.4,1.5-3.6-0.6c-0.1-1.3,2.4-1.6,3.7-1.7
	c7.1-0.4,13.2,2.4,19,6.2c-2.7,2.9-4.6-2.3-7.2-0.7l-0.1-0.1c-0.5-0.6-1.4-0.4-1.9-0.9l-0.1-0.1c-1.1-1.1-2.8,0.1-3.9-0.9l-0.1,0
	C121.9,195.7,121.6,195.4,121.3,195.1L121.3,195.1z"/>
<path class="st2" d="M117.1,202.3c-3.5,3.2-7.7,0.8-11.6,1.4c0.1-1,1.1-1.3,1.7-1.9l-0.1,0.1C110.5,201.4,113.9,200.6,117.1,202.3
	L117.1,202.3z"/>
<path class="st1" d="M195.4,134c0.7,2.7,3,5.3,0.6,8.3c-0.2-0.2-0.3-0.4-0.5-0.6c-1-2.3-2.1-4.7-0.8-7.2
	C195,134.3,195.2,134.2,195.4,134z"/>
<path class="st1" d="M117.1,202.3c-3.3-1.1-6.7-0.2-10-0.4c3.5-2.1,7.3-0.7,11-0.9C117.8,201.5,117.5,201.9,117.1,202.3z"/>
<path class="st1" d="M107.2,201.9c-0.6,0.6-1.1,1.3-1.7,1.9c-0.8,0-1.5,0.1-2.3,0.1c-0.7-1.1,0.4-1.4,1-2l-0.1,0.1
	C105.2,201.9,106.2,201.9,107.2,201.9z"/>
<path class="st2" d="M104.2,201.9c-0.3,0.7-0.7,1.3-1,2c-0.7,0-1.4,0-2.1,0C102,202.9,102.4,201.3,104.2,201.9L104.2,201.9z"/>
<path class="st2" d="M195.4,145.9c-0.2-1.2-0.4-2.5-0.6-3.8c0.4-0.3,0.9-0.2,1.3,0.1l0,0C195.9,143.5,196.4,144.9,195.4,145.9
	L195.4,145.9z"/>
<path class="st2" d="M17.9,133.1c0.3-0.7,0.1-1.8,1.4-1.9c-0.1,1-0.1,2-0.2,3C18.7,133.9,18.3,133.5,17.9,133.1L17.9,133.1z"/>
<path class="st1" d="M17.3,142.3c0.6,1.2-0.3,1.8-1.1,2.5C16.1,143.7,15.9,142.7,17.3,142.3z"/>
<path class="st1" d="M74.3,172c-1,0.4-1.7,0.1-2.2-0.8c0.1-0.2,0.3-0.3,0.4-0.5c0.7-0.2,1.3,0,1.8,0.6
	C74.3,171.5,74.3,171.8,74.3,172L74.3,172z"/>
<path class="st1" d="M75,173.3c-0.5-0.3-1-0.6-0.7-1.4v0c0.6-0.2,1,0,1.4,0.5C75.5,172.8,75.2,173.1,75,173.3L75,173.3z"/>
<path class="st2" d="M75.7,172.5c-0.5-0.2-0.9-0.3-1.4-0.5c-0.6-0.4-1.2-0.8-1.8-1.2c-5.4-5.5-8.1-12.1-9-19.6
	c0.5-0.4,0,0.1,0.3-0.4c1.1-2,5.4-1.4,4.7-3.4c-0.9-2.5-3.9,0.8-6.1-0.1c-4.2-5.9-8-12.2-12.5-17.8c-3.8-4.6-4.8-9-2.8-14.4
	c1.1-3,0.1-6.7,2.8-9.2c1.9,2.7,0.7,5.9,1.4,8.7c0.5,2.2,1.5,4.4,0.2,6.7c-0.2,0.4-0.5,0.9,0.2,1.2c2,1.8,3.7,3.9,4.8,6.3
	c0.2,0.3,0.8,1.4,1.4,0.4c0.3-0.4,0-1.2-0.1-1.9c0.6-2.2,1.8-4,3.4-5.5c1.9,0.3,3.2-1.9,5.1-1.1c2.2,0.9,2.2,3.3,2.7,4.9
	c0.8,2.5-2,1.6-3,1.7c-4.1,0.7-4.5,2.7-2.6,6c1.6,2.6,2.6,5.7,5.7,7.1c0.2,0,0.4-0.1,0.5-0.1c0.4,0,0.7,0,1.1,0.1
	c0.3,0.1,0.7,0.2,1.1,0.3c0.6,0.1,1.1,0,1.7-0.1c1.8-0.4,3.1-1.7,4.8-2.1c4.9-3.2,1.3-7,0.7-10.5c-0.4-2.4-2.8-4.1-2.9-6.7
	c0-0.7,0.1-1.9,0.5-2.2c1-0.5,1.2,0.7,1.7,1.3c1.9,3.1,3.8,6.2,5.8,9.3c0.5,0.8,1,2.1,2.1,1.7c1.6-0.5,0.8-1.9,0.7-3
	c-0.8-4.7-1.7-9.4-2.4-14.2c-0.1-0.6,0.2-1.2,0.3-1.8c0.4,0.5,0.9,0.9,1.2,1.4c1.7,4,3.2,8,4.9,11.9c0.3,0.8,0.7,2.2,2,1.7
	c0.5-0.2,1-1.3,0.9-2c-0.9-11.8,5.7-22.3,5.7-34c0-2.6,1.3-3.3,3.3-4.2c2.7-1.3,3.1,0.9,4.2,2.1c1.8,2.2,3.6,4.3,5.3,6.6
	c0.5,0.6,1.7,1.1,1.1,1.9c-0.3,0.5-1.5,0.5-2.2,0.7c-4.2,0.7-8.1,2.1-10.8,5.7c-0.2,0.5-0.1,0.6,0.4,0.4c2.1,0.2,1.7,1.2,0.6,2.1
	c-2.6,2.2,3.4,1.8,1.1,3.8c1.5,1.3,2-0.3,2.5-1c3-4.7,8.2-2.8,12.4-4.1c2.6-0.8,3.2,2.3,3.8,4.2c0.9,2.7-1.7,1.9-2.9,2.6
	c-2.3,1.3-4.5,1.8-6.9,0.8c-0.7,0.3-1.9-0.6-2.2,0.4c-0.5,1.7,1.1,2.6,2.1,3.7c1.3,4.5,3.3,8.5,7.6,10.9c3.9-0.7,7.8-1.2,11.6-2.4
	c3.5-5.2,2-10.8,1.7-16.4c0.3-0.3,0.6-0.2,0.9,0c4.4,5.1,2.7,11.1,2.1,16.6c-1.6,15.6-5.7,30.7-12.5,45c-1.3,2.7-4.4,3.9-4.6,7.1
	h-0.4c-0.5-1.8-1.8-1.1-2.8-0.9C100.9,181.1,88.2,177.8,75.7,172.5L75.7,172.5z"/>
<path class="st0" d="M29.3,67.4c0.3-0.6,0.5-1.2,0.8-1.7c1.5-0.5,1.4-2.1,2.2-3.1l0,0.1c0.7-0.5,0.5-1.4,1-2l0,0
	c0.6-0.4,0.3-0.8,0-1.3c0.1-0.9,0.4-1.6,1.5-1.7c1.1-0.2,1-1.4,1.5-2h0c0.4-0.3,0.7-0.6,1-1l0,0c0.4-0.2,0.8-0.6,1-1l0,0
	c1-1.3,1.8-2.8,3-4l0,0c2.7-4,6-7.3,10-10h0c1.5-1.5,3.2-2.8,5-4l0,0c0.4-0.2,0.7-0.6,1-1l0,0c6.9-4.2,14.2-7.7,22-10h-0.1
	c4,1,7.3-1.7,11.1-1.8c1,0,2,0.1,2.9,0.1c-0.4,1.4-1.7,1.2-2.7,1.5c-17.7,4.9-33.1,13.5-45.1,27.6c-1.2,1.5-3.5,2.7,0.1,4
	c1,0.4,1.3,1.9,1,3.1c-0.9,3-0.6,4.1,2.4,1.7c1-0.8,2.1-0.2,2.4,0.8c0.8,2.9-0.5,5.5-2.1,7.8c-0.9,1.3-1.5,3.3-4.1,1.6
	c-2.4-1.5-2.8,1.6-3.7,2.8c-2.5,3.4-4,8.7-9.3,2.4c-1.5-1.8-1.6,0.9-1.9,1.9c-1.8,7-3.4,14.1-5.1,21.2c-0.6,0.5-1.3,0.5-2,0.1
	c-0.9-1.2,0.3-2.8-0.7-4.1c-0.4-2.8,0.6-5.3,1.3-8c2-0.8,0.3-3,1.6-4.1c2.9-0.2-0.7-2,0.6-2.6C26.6,76.3,29.3,72.2,29.3,67.4
	L29.3,67.4z"/>
<path class="st2" d="M139.4,69.4c-1.2-1.7-2.9-3.2-1.3-5.6c0.9-1.3,1.7-2.5,3.5-2.2c2.6,0.5,4.1,2.1,4.3,4.7
	c0.1,2.2,0.9,2.4,2.2,0.9c1.9-2.2,3.6-2,5.5-0.2c1.6,1.5,2.3,3.4,0.9,5.3c-1.8,2.4-4,1.3-6.1,0.3c-0.2-0.1-0.4-0.1-0.6-0.2
	c-0.8-0.3-1.4-0.9-2.1-1.3c-1-0.4-1.9-0.2-2.5,0.7c-0.3,0.5-0.3,1-0.3,1.6c0.1,0.3,0.3,0.7,0.4,1c0.2,0.3,0.4,0.6,0.6,0.9
	c0.3,0.4,0.5,0.9,0.5,1.5c1.1,2.5,2.3,4.6,4.1,0.5c1.5-3.4,3.4-1.5,5.1-0.5c2.4,1.4,3.8,3.6,1.8,6.2c-1.3,1.7-3.1,4.1-5.6,1.5
	c-1.9-1.9-2.6-2.8-3.2,0.8c-0.4,2.4-3,3.7-5.5,2.3c-2.5-1.3-3-3.7-1.9-6.4c0.3-0.7,3.8-3-0.6-2.7c-3.5,0.2-5.1-1.4-5-4.5
	c0.1-3.5,2.3-4.4,5.5-3.6C138.9,70,139.9,70.3,139.4,69.4L139.4,69.4z"/>
<path class="st0" d="M159.1,42.2c7,1.3,14.7,10.3,14.8,17.1c0,1.5-0.1,3.1-1.6,3.8c-1.4,0.7-2.6-0.3-3.6-1.2
	c-1.4-1.2-2.5-2.6-3.8-3.9c-1.4-1.3-1.9-2.9-5-1.7c-3.2,1.2-4.1-3.3-5.3-5.8c-1.5-3.1,0-4.8,2.8-5.8
	C157.8,43.8,158.1,42.8,159.1,42.2L159.1,42.2z"/>
<path class="st0" d="M132.1,183.9c4.9-8.8,10.5-17.2,14.3-26.6c0.2-0.5,0.8-0.8,1.3-1.3c0.2,0.6,0.5,1.1,0.5,1.7
	c-0.2,6.1,0,12.2,0.9,18.3c0.4,2.5-0.1,3.7-3.1,4.3c-2.9,0.6-6.5-0.2-8.7,2.7l0.1,0c-1.6,0.4-3.1,0.9-4.7,1.3
	C132.3,184.2,132.2,184.1,132.1,183.9L132.1,183.9z"/>
<path class="st2" d="M115.1,84.5c6.1,4,11.5,8.8,18.1,12.1c3.6,1.8,1.4,6,1.8,9.2c0,0.2-0.2,0.4-0.2,0.6c-0.1-0.2-0.2-0.5-0.4-0.7
	c-3.4-4.6-8.2-6.5-13.6-7.1c-3.2-0.3-5.5-0.8-6.1-4.7c-0.4-2.9-1.8-5.6-2.7-8.4C112.9,84.5,113.9,84.3,115.1,84.5z"/>
<path class="st0" d="M60.3,72.8c-0.1-7.5,2-13.8,5.6-19.7c0.6-0.9,0.9-2.7,2.3-2.2c1.9,0.7,0,1.9-0.1,2.8c-0.1,0.9-1.3,1.9-0.3,2.7
	c1,0.8,1.6-0.6,2.4-1.1c2.8-1.6,4,0.2,3.8,2.3c-0.2,2.9-0.1,6-1.7,8.7c-1.6,2.7-3.3,5.1-6.1,0.9c-1.5-2.3-2.5-1.6-3.1,0.6
	c-0.4,1.6-0.7,3.2-1.1,4.8c-0.4,1.8,0.7,4-1.3,5.4C60.5,76.1,60.4,74.2,60.3,72.8L60.3,72.8z"/>
<path class="st2" d="M163.5,112.1l-0.8-2.2c0-0.8,0.4-1.2,1.2-1.2c4.8,9.8,2.6,20.4-5.5,26.1c-0.9,0.6-2.3,1.4-3,1.2
	c-1.6-0.6-0.2-2-0.1-2.9c0.6-3.9,1.5-7.8,2.2-11.6C160.6,118.9,163.8,116.6,163.5,112.1L163.5,112.1z"/>
<path class="st0" d="M130.2,125.7c-3.3,3.3-7.2,4.2-11.6,2.4c-0.4-2.7-1.9-4.9-3.4-7.1c-1.4-2.1-0.6-3.5,1.1-4.6
	c2.4-1.6,1.5,1.2,2.3,1.8c2.3,1.8,4.2,4.2,7.7,1.6c2.5-1.8,3.8-0.9,4,1.7c-0.8-0.1-1.1,0.3-0.9,1
	C129.3,123.7,129.1,124.8,130.2,125.7L130.2,125.7z"/>
<path class="st2" d="M63.4,111c1,4-2.8,2.1-4.4,3.2c-7.5,4.8-3.8-1.1-3.5-3.5c0.3-2.9,1-5.8,1.5-8.7c0.4-2.1,2-2.5,3.7-2.6
	c2.1-0.1,1.5,1.7,1.7,2.8C62.7,105.1,63,107.9,63.4,111L63.4,111z"/>
<path class="st0" d="M131.1,45.6c2.8,0.7,4.5,2.9,4.9,5.8c0.3,1.9-0.7,4-2.9,3.9c-3.4-0.2-5.3-2.7-5.5-6
	C127.6,47.5,128.4,45.7,131.1,45.6z"/>
<path class="st0" d="M163.5,112.1c2.4,5.9-0.3,8.5-5.9,9.2c0.2-2.1,0.6-4.2,0.5-6.2C157.9,110.4,159.7,109.7,163.5,112.1
	L163.5,112.1z"/>
<path class="st0" d="M78.3,138.5c-0.8,3.3-3.7,3.1-6.2,3.6c-0.3-0.3-0.6-0.6-1-0.9l0.1,0.1c-0.5-0.7-1.4-0.5-2.1-1v0.1
	c-0.8-4.8,0.9-7.1,6-6.2c1.4,0.4,1.8,1.9,2.8,2.8C78.1,137.5,78.2,138,78.3,138.5L78.3,138.5z"/>
<path class="st0" d="M19.3,131.3c-0.9-1.5,0.6-3.4-0.9-4.9c0.4-2.4,0.7-4.8,1.1-7.2c1.9-2.8,1.4-6,1.7-9.1c0.2-1.8-0.2-3.7,1.4-5
	c0.5-0.2,1-0.1,1.5,0.3C23.3,114.2,22.9,123,19.3,131.3L19.3,131.3z"/>
<path class="st0" d="M62.4,147.3c1.4-1.1,2.9-2,4.8-2.2c1.5-0.2,3.2-1,3.7,1c0.5,1.9-0.4,3.5-2.6,4c-1.6,0.4-3.2,0.7-4.8,1
	C63.2,149.8,62.8,148.6,62.4,147.3L62.4,147.3z"/>
<path class="st0" d="M141.2,71.1c3.1-3.1,3.4-3.2,5-1.1c0.5,1,1.4,1.6,2.1,2.5l0-0.1c-0.1,2.6-1.9,3.5-4.1,4.1
	c-0.3-0.2-0.6-0.5-1-0.8c-0.2-0.5-0.6-0.9-1.1-1.2l0,0C141.4,73.6,141.9,72.2,141.2,71.1L141.2,71.1z"/>
<path class="st2" d="M74.6,116.9c-1.2-0.6-2.3-1.1-3.5-1.8c-1-0.6-2.8-0.5-2.5-2.4c0.2-1,0.3-2.4,1.9-2.3c1.5,0.1,2.9,0.3,3.6,2
	c0.4,1.2,1,2.4,1.4,3.6C75.7,116.7,75.3,117,74.6,116.9z"/>
<path class="st2" d="M60.1,89.3c0.6,2.7,3,6,0.1,8c-3.3,2.3-2.1-0.8-1.8-2.4c0.3-1.8,0.6-3.6,0.9-5.3C59.4,89.3,59.7,89.2,60.1,89.3
	z"/>
<path class="st0" d="M115.1,84.5c-0.8,1.2-1.9,0.9-3.1,0.9c-1.6-2.2-2.7-4.6-2.3-7.4C112.1,79.7,114.2,81.6,115.1,84.5L115.1,84.5z"
	/>
<path class="st0" d="M110.9,117.2c-5.3,0-3.6-3.8-3.5-6.6c0-1,0.5-1,3.6,2.6C111,114.6,111,115.9,110.9,117.2L110.9,117.2z"/>
<path class="st0" d="M61.2,121.8c0.1,2.6-1.5,4.2-3.4,5.6c-1.4-2.7-1.6-5.2,1.7-6.8C60.7,120,61.2,120.6,61.2,121.8L61.2,121.8z"/>
<path class="st2" d="M162.7,109.9c-2.7-0.9-5.6-1.7-4.2-5.6c0.1-0.3,0.3-0.5,0.6-0.7c2.8,0.6,3.6,3,4.9,5.1
	C163.5,109.1,163.1,109.5,162.7,109.9L162.7,109.9z"/>
<path class="st0" d="M36.1,145.3c-1.2,0.7-2.4,1.3-3.6,2c-0.1-2.3-0.3-4.6-0.3-6.8c0-0.8-0.7-2.1,0.6-2.4c0.2-0.1,1,1.4,1.4,2.2
	C34.8,141.9,35.4,143.6,36.1,145.3L36.1,145.3z"/>
<path class="st0" d="M83.2,57.9c-0.1,1.3,0,3-1.6,3.2c-1.6,0.2-1.3-1.6-1.4-2.6c-0.1-1.3,0-3,1.6-3.1C83.5,55.1,83.1,56.8,83.2,57.9
	L83.2,57.9z"/>
<path class="st0" d="M99.3,82.3c-0.1-0.3-0.2-0.6-0.2-0.9c-0.3-2.4-0.6-4.8-0.9-7.2c2.4,1.8,2.6,4.6,3.2,7.2
	C100.9,82.3,100.5,83.1,99.3,82.3L99.3,82.3z"/>
<path class="st0" d="M196.1,142.3c-0.4,0-0.9-0.1-1.3-0.1c-0.5-2.7-1-5.4-1.5-8.2c0.4-0.1-0.8-1.8,0.7-0.7c0.4,0.3,0.6,0.8,0.8,1.2
	C195.3,137.1,195.7,139.7,196.1,142.3L196.1,142.3z"/>
<path class="st2" d="M99.3,82.3c0.7-0.3,1.3-0.7,2-1c0.8,1.2,3.1,2.1,1.3,4c-0.6,0.6-2.1,1.3-2.6,0.9C98.5,85.3,99,83.7,99.3,82.3
	L99.3,82.3z"/>
<path class="st2" d="M70.1,103.2c1.2,1,1.7,2.3,1.9,3.8c0.1,0.9-0.3,1.8-1.3,1.4c-1.6-0.7-1.3-2.4-1.4-3.8
	C69.3,104,69,103.2,70.1,103.2z"/>
<path class="st2" d="M78,137.1c-2,0.1-2.5-1.2-2.8-2.8c0.7-0.8,1.6-1.3,2.5-0.6C79.2,134.6,78.3,135.9,78,137.1z"/>
<path class="st0" d="M107.5,50.7c0.9,0.2,1.4,0.7,1.2,1.7c-0.2,0.8-0.4,1.7-1.4,1.7c-1,0-1.2-0.9-1.2-1.8
	C106.1,51.3,106.6,50.8,107.5,50.7L107.5,50.7z"/>
<path class="st0" d="M126.8,107.2c-0.2,0.8-0.6,1.6-1.6,1.2c-0.6-0.2-1.4-0.9-1.5-1.6c-0.1-0.8,0.5-1.4,1.5-1.3
	C126.3,105.7,126.7,106.3,126.8,107.2z"/>
<path class="st0" d="M60.1,89.3c-0.3,0.2-0.5,0.3-0.9,0.3c-0.8-2.1-0.3-4.1,0.6-6C60.7,85.5,60.4,87.4,60.1,89.3z"/>
<path class="st0" d="M57.4,64.4c-0.2,0.8-0.2,1.8-1.3,1.7c-0.3,0-0.8-1-0.7-1.4c0-0.5,0.5-1.2,1-1.4C57.3,63,57.2,63.9,57.4,64.4
	L57.4,64.4z"/>
<path class="st2" d="M24.2,105.4c-0.5,0.1-1,0.1-1.5,0.2c-0.3-2.1-1-4.3,0.8-6.1c0.5,0,1.1,0,1.6,0.1
	C24.7,101.5,24.5,103.5,24.2,105.4L24.2,105.4z"/>
<path class="st0" d="M71.3,122.5c1,0.5,1.7,1,1.6,1.9c-0.1,0.8-0.8,1.1-1.4,0.8c-0.5-0.2-1-0.8-1.1-1.3
	C70.4,123.4,71,122.9,71.3,122.5z"/>
<path class="st2" d="M129.5,122.6c-0.8-0.4-2.4-0.3-1.4-1.7c0.7-1,1.8-0.2,2.4,0.7C130.1,121.9,129.8,122.2,129.5,122.6L129.5,122.6
	z"/>
<path class="st2" d="M159.1,42.2c-0.1,1.1-0.7,1.9-1.7,2.4C157,43.2,157.5,42.3,159.1,42.2z"/>
<path class="st0" d="M51.7,122.5c-0.8,0.5-2,1.4-2.3,0c-0.3-1.2,1.2-1.2,2.1-1.2C51.6,121.7,51.7,122.1,51.7,122.5z"/>
<path class="st2" d="M145.8,50.7c-1.1,0.6-1.6,1-1.8,0.9c-0.3-0.1-0.7-0.6-0.7-0.9c0-0.2,0.6-0.7,0.9-0.7
	C144.6,50,144.9,50.3,145.8,50.7L145.8,50.7z"/>
<path class="st0" d="M71.9,128.7c-0.3,0.1-0.6,0.2-0.9,0.3c-0.1-0.3-0.3-0.6-0.2-0.8c0.1-0.2,0.5-0.3,0.8-0.4
	C71.7,128.1,71.8,128.4,71.9,128.7z"/>
<path class="st0" d="M117.3,178.1l0.4,0c0.4,0.9,0.2,1.5-0.8,1.7c-0.2,0-0.6-0.3-0.6-0.4C116.2,178.6,116.6,178.2,117.3,178.1z"/>
<path class="st0" d="M132.7,109.3l-0.4,0.1l-0.4-0.1c-0.2-0.4-0.3-0.7-0.5-1.1C132.4,107.9,132.4,108.8,132.7,109.3z"/>
<path class="st2" d="M75.7,116c0.5,0.7,1.2,1.4,0.4,2.4c-0.5-0.5-1-0.9-1.4-1.4C75,116.6,75.3,116.3,75.7,116z"/>
<path class="st0" d="M108.1,87.1c0-0.1,0.1-0.3,0.1-0.3c0.1,0,0.3,0.1,0.4,0.1c0,0-0.1,0.2-0.1,0.3
	C108.4,87.2,108.2,87.2,108.1,87.1L108.1,87.1z"/>
<path class="st2" d="M43.3,146.2c-0.2-0.1-0.4-0.2-0.6-0.3c0.1,0,0.3-0.1,0.3,0C43.1,145.9,43.2,146.1,43.3,146.2L43.3,146.2z"/>
<path class="st0" d="M132.5,184.3l-0.9,0.2c0.2-0.2,0.3-0.4,0.5-0.6C132.2,184,132.3,184.2,132.5,184.3z"/>
<polygon class="st2" points="110.8,195.7 110.7,195.5 111,195.5 "/>
<path class="st0" d="M121.3,195.1c0.3,0.3,0.6,0.5,0.9,0.8l-0.4,0.1l-0.4-0.1C121.3,195.7,121.2,195.4,121.3,195.1L121.3,195.1z"/>
<path class="st0" d="M159,103.6c-0.1,0.3-0.2,0.6-0.6,0.7C158.6,104.1,158.8,103.8,159,103.6z"/>
<path class="st1" d="M56.2,35.8c-0.2-0.8,0.3-1,1-1"/>
<path class="st0" d="M122.2,196c1.4-0.2,2.9-0.7,3.9,0.9C124.7,197,123.2,197.5,122.2,196z"/>
<path class="st0" d="M126.2,197c0.9-0.2,1.7-0.2,1.9,0.9C127.3,198,126.5,197.9,126.2,197z"/>
<path class="st0" d="M132,131.5c-0.4,1.2,0.1,4-3.4,3.1c-0.7-0.2-1.7,0.7-2.3,0.5c-1.5-0.5-2.5,3.4-3.8,0.6
	c-0.9-2.1,0.3-4.3,2.7-5.1c1.4-0.5,2.8-0.7,4.1-1.6C131.4,127.4,132.4,128.2,132,131.5L132,131.5z"/>
<path class="st1" d="M100.2,98.5c0.6-2.2,2.2-3,4.3-3.1c0.4,0,0.8,0.3,1.2,0.5c-1.6,1.1-3.1,2.2-4.7,3.3
	C100.7,99,100.4,98.8,100.2,98.5L100.2,98.5z"/>
<path class="st1" d="M69.2,140.3c1.2-0.8,1.7,0,2.1,1C70.2,141.7,69.6,141.2,69.2,140.3z"/>
<path class="st1" d="M71.2,141.2c0.3,0.3,0.7,0.6,1,0.9C71.6,142.1,71,142.1,71.2,141.2z"/>
<path class="st0" d="M82.8,143.1c-0.1-0.1-0.2-0.1-0.3-0.2c0.1-0.2,0.2-0.3,0.3-0.5c0.1,0.1,0.3,0.2,0.3,0.3S82.9,143,82.8,143.1z"
	/>
<path class="st1" d="M100.5,104.7c-0.3,0.1-0.7,0.1-1,0.2c0.2-0.2,0.4-0.4,0.6-0.5C100.2,104.5,100.4,104.6,100.5,104.7z"/>
<path class="st0" d="M100.2,98.5c0.3,0.2,0.6,0.4,0.8,0.7c-0.3,0-0.6,0-0.9,0l-0.2-0.4L100.2,98.5L100.2,98.5L100.2,98.5z"/>
<path class="st1" d="M100.2,98.4c-0.2,0.2-0.2,0.5-0.1,0.7l-0.2-0.4L100.2,98.4L100.2,98.4z"/>
<path class="st2" d="M26.1,83.5c0.1-0.6,0.2-1.3,0.3-1.9c0.9,0.9,1,1.9,0.5,3C26.7,84.2,26.4,83.9,26.1,83.5z"/>
<path class="st1" d="M141.2,71.1c1.6,0.8,1.6,2.1,0.9,3.5C140.1,73.9,140.7,72.5,141.2,71.1z"/>
<path class="st1" d="M148.2,72.6c-1.4-0.3-2.1-1.1-2.1-2.5C147.4,70.5,148.7,70.8,148.2,72.6z"/>
<path class="st1" d="M142.1,74.7c0.9-0.1,0.9,0.6,1.1,1.2C142.6,75.7,142,75.5,142.1,74.7z"/>
<path class="st1" d="M139.4,69.4c0.1,0.3,0.3,0.6,0.5,0.9c-0.4,0-0.7-0.1-1.1-0.1C139,70,139.2,69.7,139.4,69.4z"/>
<path class="st1" d="M13.2,141.2c0,0,5.5-9.8,6.8-24.2s-0.9-86.8,77.5-96.9c0,0-79.2,10.5-75.2,101.1
	C22.7,130.4,13.2,141.2,13.2,141.2L13.2,141.2z"/>
<path class="st1" d="M94.7,158.7c0-0.6,2.6,1,6,0.4c3.4-0.6,8.2-5.2,8.8-5.1c2.1,0.3-1.7,3.9-7.7,5.1
	C96.2,160.1,94.6,160.5,94.7,158.7L94.7,158.7z"/>
</svg>
