<?xml version="1.0" encoding="UTF-8"?>
<svg id="_图层_2" data-name="图层 2" xmlns="http://www.w3.org/2000/svg" viewBox="0 0 210.31 208.87">
  <defs>
    <style>
      .cls-1 {
        fill: #faf7fa;
      }

      .cls-1, .cls-2, .cls-3 {
        stroke-width: 0px;
      }

      .cls-2 {
        fill: #cca8ee;
      }

      .cls-3 {
        fill: #6d6e82;
      }
    </style>
  </defs>
  <g id="_图层_1-2" data-name="图层 1">
    <g>
      <path class="cls-2" d="m117.23.6c4.85.57,10.02,1.16,14.86,2.66,40.65,12.55,67.31,38.75,75.82,80.69,7.9,38.93-3.81,72.49-33.46,98.94-23.07,20.58-50.7,28.85-81.65,25.11-37.43-4.52-64.74-24.26-81.7-57.08C-6.87,116.14-3.11,71.34,23.04,39.44,40.87,17.69,63.51,4.61,91.53.89c.59-.08,2.59-.29,2.59-.29,7.53-.96,14.85-.62,23.11,0Z"/>
      <path class="cls-3" d="m17.36,142.39c-.74-3,2.19-5.22,1.75-8.16-.41-.93-.78-1.88-.66-2.93.06-.51.19-1.01.37-1.49,2-7.96,3.5-16,4.04-24.2-.06-2.05.39-4.02.96-5.97,1.21-6.84,3.01-13.54,4.82-20.25.86-3.2,1.56-5.67,5.48-2.84,2.45,1.77,4.01.04,5.34-1.8,1.75-2.43,3.29-4.84,6.86-5.14,2.2-.19,2.98-2.46,3.44-4.44.56-2.41-1.47-1.84-2.73-2.41-3.01-1.36-4.34-9.26-2.1-11.81,11.82-13.51,26.57-22.25,43.91-26.82.66-.17,1.38-.08,1.97-.51-.58.38-1.3.2-1.9.46-1.84.77-3.79,1.28-5.71,1.63-1.56.29-3.8.84-3.77-2.11,3.53-3.22,8.06-3.76,12.47-4.38,15.04-2.14,30.05-3.1,44.8,1.9,2.03.69,4.25.97,5.47,3.07,13.96,5.52,26.01,13.6,34.75,26,5.17,7.32,8.82,15.39,11.23,24.01.48,1.72,1.2,3.37,1.81,5.05,1.73,5.33,3.82,10.63,1.98,16.39.61,12.86,1.72,25.67,3.53,38.42-.16.16-.32.32-.49.49-.76-.22-1.68-.36-.89-1.5-.93.54-.2,1.18-.05,1.71.72,2.52,1.56,5.02,1.63,7.67-.12,1.17.16,2.36-.28,3.5-3.11,10.02-9.73,17.89-16.4,25.59-6.64,7.66-14.7,13.79-23.38,19.05-1.64.99-3.62,3.07-4.63-1.03-2.1-8.5-2.26-8.45-10.86-6.75-.96.19-1.97.18-2.96.26.04-2.74,2.32-2.79,4.11-3.28,6.46-1.77,6.45-1.74,5.72-8.57-.32-2.95-.14-5.92-.18-8.89,0-.65.08-1.31-.14-1.95-.78.4-.76,1.27-1.1,1.92-3.77,7.12-7.06,14.52-12.37,20.72-.29.29-.9.55-.87.84.04.46.28.48.22.1-.04-.28.12-.5.43-.68,1.36-1.09,2.74-1.62,4.23-.25-1.96,3.57-6.86,3.37-8.88,6.86.69,2.2,2.93,1.62,4.42,2.36,2.44,1.23,5.29,1.8,6.52,4.68-.56,2.11-2.11,2.13-3.83,1.78-4.63-1.03-8.63-3.8-13.34-4.68-1.62-.3-3.19-.66-4.84-.53,1.3.48,2.87.11,3.99,1.2.25.42.31.87.17,1.34-2.99,2.07-6.74,1.18-9.94,2.53-1.98.84-3.97,1.62-5.73,2.86-.31.32-.65.61-1.02.88-1.1.72-2.53.69-3.57,1.57-3.63-.31-7.25-.66-10.88-.94-3.31-.25-2.84-3.18-3.73-5.14-.34-.74-.68-2.21-.83-2.19-1.24.2-1.04,1.4-1.33,2.3-.44,1.33.79,3.89-2.06,3.53-2.18-.28-1.81-2.38-2-4-.99-8.2-2.02-16.4-5.32-24.1.26-.5.67-.83,1.21-1,3.46-.43,6.35,1.54,9.51,2.35,8.86,2.29,17.69,4.11,26.82,1.56,1.28-.36,2.61-.41,3.89.09.54.31,1.06.66.86,1.43.75-.37.16-1.07.4-1.58,7.75-12.58,11.62-26.56,14.45-40.82,1.59-8.05,2.56-16.28.93-24.49-.13-.43-.33-.88-.29-1.39-.31.66.3,1.14.33,1.76.91,3.35.63,6.73.49,10.09-.08,1.82-.63,3.5-2.53,4.33-1.64.33-2.39-.51-2.65-1.99-.06-.65.02-1.31-.05-1.95-3.63-.48-7.75,1.01-10.52-2.71-.26-.35-.91-.52-1.25-.06-.43.57-.11,1.22.07,1.85.65,2.27,3.66,4.15,1.19,6.95-5.65-1.14-6.31-6.05-7.87-10.29-.12-1.28-.03-2.52.56-3.69,1.69-2.02,4.42-.95,6.42-2.12,1.04-.6,2.13-1.09,1.87-2.54-.24-1.3-1.27-2.31-2.41-2.03-3.14.76-6.58.13-9.46,1.95-1.7,1.07-2.85,3.45-5.51,1.87-2.76-1.64-2.13-4.04-1.69-6.45,0-.47.09-.93.25-1.37,1.78-3.2,5.15-4.08,8.2-5.21,2.36-.87,2.54-1.68.79-3.26-.24-.22-.41-.53-.66-.74-1.85-1.63-2.43-5.55-5.76-4.41-2.91.99-2.61,4.56-2.74,6.95-.5,9.27-5.09,17.83-4.54,27.27.1,1.78-.82,3.77-3,4.02-1.92.22-2.89-1.38-3.66-2.88-1.28-2.51-2.1-5.19-2.88-7.89-.15-.53-.41-1.03-.47-1.59,0,.51.21.96.36,1.43,1.22,3.78,2.02,7.66,2.39,11.62.13,1.35.04,2.74-1.49,3.33-1.47.57-2.6-.16-3.48-1.25-1.76-2.2-3.39-4.49-4.78-6.95.99,2.45,2.94,4.59,3.01,7.32.07,2.85,1.86,6.41-2.51,7.93-.46-.12-.84-.37-1.13-.75-.8-1.07-.47-3.34-2.9-2.67-3.38-.11-4.02,2.79-5.42,4.87-3.86-.86-8.33-6.83-7.83-10.37.18-1.27.95-1.99,1.97-2.65,1.37-.88,4.07-.88,3.11-3.53-.82-2.26-3.08-1.28-4.78-1.45-5.19-.29-3.08,3.04-2.74,5.49-.08,2.33-.93,4.05-3.12,1.73-1.86-1.98-4.23-3.83-4.6-6.88-.14-.45-.23-.91-.31-1.37-.23-3.29-1.27-6.48-1.15-9.81.02-.46.09-.94-.15-1.39-.47.29-.42.81-.56,1.24-2.1,6.66-3.06,12.9,2.38,18.93,4.51,5,8.39,10.62,11.78,16.51.68,1.31,1.09,2.7,1.27,4.16.46,7.45,4.61,13.45,7.88,19.79-.12.21-.25.42-.37.63-3.81,2.4-.95,5.94-1.53,8.89,1.31,5.73,2.98,11.48-1.13,16.85-4.75-1.2-9.32-2.78-13.13-6.01-2.06-2.6-2.41-5.75-2.58-8.85-.66-12.23-5.81-23.17-9.74-34.45-.2-.36-.21-.77-.23-1.18-.86.61.43.8.26,1.29.31,2.59,3.04,6.03-.28,7.48-3.42,1.49-4.64-2.63-6.31-4.87-.97-1.3-1.62-2.83-2.34-4.29-1-1.88-1.76-3.84-2.03-5.97.25,1.99.68,3.97.59,5.99-.02.49.03.98.07,1.48.11,2.46,2.12,5.98-1.44,6.81-3.09.71-4.03-2.9-4.91-5.32-1.58-4.37-2.4-8.94-3.06-13.54-.21-1.49.36-2.86.35-4.3-.2,1.47-.35,3.02-1.05,4.3-1.52,2.76-2.04,6.53-6.27,6.85Z"/>
      <path class="cls-1" d="m142.15,24.18c-19.43-6.26-39.01-6.58-58.7-1.36-1.53.41-3.34.35-4.33,1.99-.14.18-.29.36-.43.54-7.04,2.04-13.69,4.92-19.73,9.12-.32.32-.66.6-1.01.88-.33.29-.7.55-1.07.79-.36.24-.75.44-1.14.62-1.73.48-2.85,1.73-3.87,3.1-.32.32-.67.58-1.06.82-3.73,1.89-6.5,4.73-8.51,8.35-.2.38-.44.73-.71,1.06-.83.85-1.87,1.52-2.22,2.75-.15.36-.34.69-.54,1.02-.2.32-.44.62-.69.91-.12.14-.25.28-.38.42-.24.28-.49.56-.74.83-.11.15-.23.29-.34.43-.43.6-.82,1.22-1.27,1.8-.32.45-.64.89-.92,1.37-.15.34-.33.67-.5,1-.08.17-.17.33-.25.51-.24.52-.5,1.03-.78,1.54-.18.35-.39.69-.61,1.02-.59.83-1.07,1.72-1.44,2.67-.33.84-.54,1.71-.83,2.56-2.02,6.15-4.35,12.21-4.85,18.74-.74,2.78-1.4,5.57-1.59,8.45-1.66,7.56-1.51,15.34-2.88,22.93.1,2.42-.79,4.69-1.13,7.04-.02,3.24-3.35,5.64-2.36,9.14-.19.32-.38.65-.56.97-1.01.34-.88,1.49-1.5,2.1l.06-.09c-.87.89-.85,2.4-2.13,3-7.08-13.64-8.66-28.32-7.64-43.3,1.27-18.69,7.37-35.9,18.35-51.14,13.61-18.89,31.71-31.59,54.33-37.87,10.15-2.82,20.43-4.21,30.92-3.85,16.56.57,31.87,5.4,46.31,13.46,5.69,3.18,10.64,7.23,15.76,11.12,1.12.85,3.2,2.03,2.44,3.32-1.01,1.74-2.68-.11-3.76-.75-7.65-4.58-16.37-6.06-24.68-8.72-1.19-.38-2.27-.59-3.03.72Z"/>
      <path class="cls-1" d="m17.36,142.39c3.99-2.4,4.19-7.15,6.58-10.54.44-.62.78-1.3,1.17-1.96.2.73.53,1.45.58,2.19.45,5.92,1.47,11.73,3.39,17.36.55,1.62,1.47,4.35,3,3.93,2.48-.68.22-3.01.33-4.62.04-.49.06-.98.09-1.48.91-1.15,1.68-2.56,3.57-2,1.77,2.78,3.51,5.58,5.31,8.34.54.84,1.34,1.77,2.38,1.07.4-.27.37-1.52.19-2.24-.54-2.08-1.18-4.12-.64-6.29l-.08.09c7,10.61,10.28,22.49,11.96,34.91.44,3.25.77,6.52,1.15,9.78-17.85-9.63-31-23.75-40.35-41.57-.94-1.79-.47-3.12.29-4.61.39-.82.39-1.8,1.06-2.51l.02.12Z"/>
      <path class="cls-1" d="m104.17,201.95c4.34-6.02,10.83-5.93,17.26-6.02.16-.12.32-.24.48-.36.2-.01.4-.02.59-.03.97.11,1.93.31,2.89.51.38.09.75.23,1.11.39.53.26,1.02.59,1.44,1.01.1.17.19.34.28.52.69.83,2.02,1.74,1.92,2.46-.15,1.13-1.73,1.14-2.81,1.36-3.12.64-6.13-.23-9.17-.7-3.03,1.79-6.45.94-9.68,1.4-.49.14-.99.25-1.49.32-1.04.06-2.06.04-2.82-.85Z"/>
      <path class="cls-1" d="m139.25,196.92c-3.55-2.29-7.3-4.13-11.45-5.13-.69-.17-2.29.39-1.71-1.25.15-.43,1.45-.45,2.23-.66,4.9-.21,9.84-.89,14.37,1.84,1.39.84,3.8,1.53,3.58,2.92-.29,1.81-2.71,2.07-4.53,2.28-.82.09-1.66,0-2.49,0Z"/>
      <path class="cls-1" d="m69.46,196.96c.38-5.61.75-11.23,1.13-16.85,2.74,1.94,3.38,4.91,3.7,7.93.21,1.94-.33,4,.1,5.87,1.43,6.17-1.19,5.39-4.93,3.05Z"/>
      <path class="cls-1" d="m191.92,95.62c-.66-5.46-1.32-10.92-1.98-16.38,1.09,1.61,2.07,3.32,3.29,4.83q5.26,6.51-1.31,11.55Z"/>
      <path class="cls-1" d="m121.27,195.12c-1.65-.06-3.34.06-4.95-.25-1.26-.25-3.39,1.47-3.59-.64-.12-1.28,2.36-1.63,3.73-1.71,7.1-.42,13.2,2.41,18.96,6.17-2.72,2.9-4.61-2.34-7.2-.73,0,0-.07-.05-.07-.05-.49-.6-1.4-.37-1.91-.94l-.1-.05c-1.12-1.06-2.78.08-3.9-.95l-.08-.04c-.3-.26-.6-.53-.88-.81Z"/>
      <path class="cls-1" d="m117.14,202.33c-3.51,3.22-7.73.81-11.57,1.44.11-1.02,1.05-1.32,1.67-1.89l-.1.06c3.36-.53,6.73-1.38,9.99.39Z"/>
      <path class="cls-3" d="m195.45,134.04c.69,2.72,3.01,5.31.64,8.27-.16-.2-.32-.39-.49-.59-.99-2.34-2.11-4.66-.75-7.24.2-.15.4-.29.6-.44Z"/>
      <path class="cls-3" d="m117.14,202.33c-3.29-1.15-6.66-.24-9.99-.39,3.53-2.06,7.33-.7,11.01-.86-.34.42-.68.83-1.02,1.25Z"/>
      <path class="cls-3" d="m107.25,201.88c-.56.63-1.11,1.26-1.67,1.89-.77.04-1.54.07-2.31.11-.69-1.15.43-1.42.97-1.98,0,0-.07.05-.07.05,1.03-.02,2.06-.05,3.08-.07Z"/>
      <path class="cls-1" d="m104.24,201.9c-.32.66-.65,1.32-.97,1.98-.71,0-1.42,0-2.12,0,.83-.97,1.24-2.6,3.09-1.97Z"/>
      <path class="cls-1" d="m195.38,145.92c-.19-1.25-.39-2.5-.58-3.76.45-.28.88-.24,1.28.11,0,0,.01.03.01.03-.22,1.21.31,2.56-.71,3.61Z"/>
      <path class="cls-1" d="m17.94,133.13c.32-.72.11-1.83,1.37-1.88-.06.99-.13,1.98-.19,2.97-.39-.37-.78-.73-1.18-1.1Z"/>
      <path class="cls-3" d="m17.34,142.27c.6,1.24-.34,1.82-1.06,2.51-.18-1.06-.36-2.12,1.06-2.51Z"/>
      <path class="cls-3" d="m74.33,171.97c-.96.4-1.67.07-2.21-.75.14-.17.29-.34.44-.5.72-.21,1.32-.04,1.76.58,0,.22,0,.45,0,.67Z"/>
      <path class="cls-3" d="m74.99,173.34c-.47-.33-1.01-.63-.66-1.36,0,0,0-.01,0-.01.61-.24,1.04.02,1.4.5-.25.29-.5.58-.74.88Z"/>
      <path class="cls-1" d="m75.73,172.46c-.47-.17-.93-.33-1.4-.5-.59-.42-1.18-.83-1.78-1.25-5.38-5.46-8.14-12.1-8.99-19.61.53-.4-.03.12.27-.4,1.12-1.96,5.42-1.36,4.66-3.36-.94-2.48-3.95.76-6.08-.05-4.15-5.95-7.95-12.18-12.55-17.77-3.75-4.55-4.81-9.04-2.76-14.43,1.14-3,.09-6.66,2.8-9.19,1.88,2.69.69,5.87,1.4,8.74.55,2.22,1.52,4.39.22,6.66-.22.45-.45.89.18,1.21,1.95,1.85,3.65,3.87,4.78,6.34.15.33.77,1.39,1.36.38.27-.45-.05-1.24-.1-1.88.57-2.2,1.75-4.02,3.43-5.54,1.86.3,3.16-1.94,5.15-1.12,2.2.9,2.16,3.29,2.72,4.91.85,2.5-1.97,1.55-3.01,1.73-4.14.73-4.54,2.68-2.59,5.96,1.58,2.65,2.6,5.7,5.72,7.1.18-.03.36-.06.53-.09.37-.01.72.03,1.08.12.35.09.7.19,1.05.28.58.07,1.14.02,1.71-.1,1.75-.36,3.05-1.7,4.76-2.11,4.89-3.2,1.31-7.04.65-10.54-.45-2.39-2.81-4.13-2.93-6.74-.04-.74.05-1.95.48-2.16.97-.48,1.25.65,1.65,1.3,1.92,3.1,3.83,6.2,5.77,9.28.51.8.96,2.09,2.1,1.73,1.57-.49.83-1.89.65-2.97-.8-4.73-1.65-9.45-2.41-14.18-.09-.57.2-1.2.32-1.81.4.48.94.89,1.17,1.44,1.66,3.97,3.22,7.98,4.9,11.94.35.83.68,2.16,1.96,1.72.5-.17.97-1.33.92-2-.9-11.79,5.67-22.34,5.67-33.95,0-2.57,1.35-3.26,3.28-4.2,2.65-1.29,3.13.86,4.2,2.13,1.81,2.15,3.58,4.35,5.34,6.55.48.6,1.66,1.09,1.08,1.95-.34.5-1.46.53-2.24.67-4.22.74-8.09,2.11-10.77,5.71-.22.49-.07.6.4.38,2.06.15,1.67,1.17.61,2.07-2.58,2.19,3.41,1.8,1.1,3.82,1.46,1.31,2.03-.27,2.48-.97,3.01-4.65,8.25-2.79,12.36-4.1,2.59-.82,3.21,2.32,3.85,4.22.92,2.73-1.65,1.91-2.89,2.62-2.28,1.3-4.47,1.81-6.94.82-.73.27-1.92-.58-2.2.37-.51,1.72,1.11,2.56,2.06,3.65,1.31,4.49,3.28,8.53,7.64,10.89,3.9-.65,7.82-1.23,11.6-2.45,3.54-5.15,1.99-10.82,1.66-16.36.3-.26.58-.25.85.04,4.39,5.05,2.66,11.05,2.1,16.59-1.58,15.65-5.71,30.67-12.46,44.98-1.26,2.67-4.37,3.95-4.6,7.12h-.42c-.47-1.75-1.83-1.14-2.82-.86-13.6,3.86-26.31.63-38.77-4.71Z"/>
      <path class="cls-2" d="m29.26,67.4c.26-.58.52-1.15.78-1.73,1.5-.48,1.35-2.12,2.2-3.06l-.04.06c.67-.52.5-1.44,1.01-2.04h0c.64-.4.28-.83.03-1.26.12-.88.44-1.6,1.47-1.69,1.13-.21,1-1.36,1.51-2.02h-.01c.41-.26.74-.59,1-1h0c.42-.25.75-.59,1.01-1l-.03.03c1.02-1.32,1.76-2.85,3-4.01h0c2.7-3.96,6.03-7.28,10.01-9.96h-.01c1.53-1.48,3.18-2.83,5.01-3.96h0c.41-.25.74-.59,1.01-.99h0c6.93-4.2,14.17-7.74,22-9.96,0,0-.09,0-.09,0,3.96.98,7.33-1.67,11.11-1.81.98-.04,1.97.07,2.95.11-.36,1.44-1.69,1.25-2.7,1.53-17.72,4.86-33.09,13.48-45.06,27.64-1.24,1.47-3.45,2.66.14,4.04.99.38,1.33,1.86.96,3.09-.91,2.99-.56,4.07,2.41,1.72,1.03-.82,2.12-.25,2.38.76.75,2.94-.5,5.5-2.12,7.83-.92,1.33-1.48,3.32-4.13,1.63-2.38-1.51-2.83,1.58-3.71,2.78-2.52,3.43-4.03,8.72-9.31,2.37-1.48-1.78-1.64.91-1.89,1.89-1.75,7.04-3.44,14.1-5.14,21.15-.64.52-1.3.48-1.97.06-.87-1.25.27-2.83-.66-4.07-.36-2.79.62-5.35,1.32-7.96,2.03-.79.33-3.01,1.57-4.09,2.92-.22-.66-1.99.62-2.61.7-4.59,3.4-8.69,3.35-13.47Z"/>
      <path class="cls-1" d="m139.39,69.43c-1.25-1.68-2.94-3.21-1.29-5.63.88-1.28,1.68-2.54,3.46-2.23,2.6.45,4.1,2.13,4.26,4.68.13,2.15.92,2.42,2.19.94,1.85-2.16,3.61-1.98,5.48-.23,1.62,1.52,2.27,3.41.86,5.28-1.8,2.38-4.03,1.3-6.12.28-.2-.05-.4-.11-.61-.16-.76-.35-1.4-.9-2.13-1.29-1.03-.39-1.88-.17-2.53.71-.28.49-.34,1.01-.28,1.55.13.32.26.65.42.96.21.29.39.58.59.88.3.45.52.93.47,1.49,1.08,2.5,2.32,4.57,4.08.5,1.49-3.44,3.43-1.47,5.06-.48,2.35,1.43,3.78,3.55,1.78,6.15-1.34,1.73-3.1,4.09-5.61,1.54-1.91-1.95-2.58-2.83-3.23.85-.43,2.43-3.03,3.66-5.52,2.34-2.53-1.34-2.98-3.65-1.91-6.38.27-.69,3.84-3.01-.59-2.69-3.51.25-5.06-1.42-4.97-4.54.1-3.46,2.3-4.45,5.49-3.64.18-.31,1.16-.04.65-.87Z"/>
      <path class="cls-2" d="m159.05,42.23c6.96,1.33,14.72,10.28,14.83,17.07.03,1.55-.12,3.12-1.62,3.84-1.36.65-2.59-.35-3.56-1.19-1.37-1.18-2.51-2.61-3.8-3.88-1.35-1.33-1.88-2.88-5-1.73-3.23,1.19-4.08-3.28-5.32-5.84-1.51-3.1,0-4.77,2.79-5.83.45-.89.78-1.85,1.68-2.44Z"/>
      <path class="cls-2" d="m132.07,183.93c4.85-8.82,10.46-17.23,14.26-26.61.2-.5.83-.84,1.26-1.26.16.56.47,1.13.46,1.69-.2,6.12-.04,12.22.93,18.29.39,2.46-.14,3.69-3.12,4.28-2.91.57-6.49-.24-8.71,2.73,0,0,.05-.03.05-.03-1.57.43-3.15.85-4.72,1.28-.13-.12-.27-.24-.4-.36Z"/>
      <path class="cls-1" d="m115.11,84.53c6.05,3.98,11.47,8.83,18.12,12.06,3.62,1.76,1.36,6.04,1.82,9.16.03.18-.16.39-.25.58-.12-.25-.21-.52-.38-.74-3.37-4.59-8.23-6.52-13.63-7.05-3.21-.32-5.5-.82-6.05-4.66-.42-2.89-1.76-5.64-2.69-8.45.82-.97,1.88-1.14,3.06-.9Z"/>
      <path class="cls-2" d="m60.28,72.76c-.14-7.5,1.95-13.83,5.55-19.72.56-.92.9-2.67,2.27-2.17,1.86.67.01,1.86-.11,2.82-.12.9-1.3,1.9-.29,2.66,1.04.78,1.62-.61,2.4-1.07,2.77-1.62,4.02.24,3.83,2.35-.25,2.9-.13,6-1.73,8.66-1.61,2.68-3.35,5.06-6.05.88-1.51-2.35-2.52-1.61-3.09.64-.4,1.6-.7,3.22-1.06,4.83-.41,1.82.66,4-1.31,5.45-.15-1.94-.29-3.89-.4-5.32Z"/>
      <path class="cls-1" d="m163.46,112.06l-.77-2.17c0-.82.4-1.23,1.23-1.24,4.75,9.85,2.55,20.37-5.53,26.08-.89.63-2.27,1.45-3.04,1.16-1.6-.6-.21-1.98-.05-2.95.65-3.89,1.47-7.76,2.23-11.64,3.06-2.39,6.31-4.67,5.94-9.25Z"/>
      <path class="cls-2" d="m130.18,125.67c-3.35,3.27-7.2,4.17-11.6,2.45-.38-2.71-1.89-4.93-3.38-7.1-1.42-2.06-.56-3.49,1.08-4.61,2.36-1.61,1.54,1.24,2.34,1.85,2.34,1.77,4.16,4.22,7.72,1.62,2.46-1.8,3.78-.93,4.04,1.67-.75-.05-1.08.26-.91,1.03-.14,1.12-.41,2.27.71,3.1Z"/>
      <path class="cls-1" d="m63.37,111.02c.98,3.99-2.75,2.14-4.42,3.23-7.47,4.83-3.82-1.11-3.54-3.49.35-2.92,1.03-5.81,1.53-8.72.36-2.11,1.97-2.49,3.66-2.56,2.14-.08,1.52,1.69,1.68,2.85.38,2.76.69,5.53,1.08,8.69Z"/>
      <path class="cls-2" d="m131.1,45.63c2.82.69,4.52,2.86,4.94,5.81.27,1.87-.74,4.02-2.85,3.88-3.39-.23-5.31-2.66-5.51-5.97-.11-1.86.7-3.61,3.42-3.72Z"/>
      <path class="cls-2" d="m163.46,112.06c2.38,5.86-.29,8.51-5.94,9.25.19-2.07.59-4.16.51-6.22-.17-4.72,1.69-5.43,5.43-3.03Z"/>
      <path class="cls-2" d="m78.32,138.51c-.84,3.26-3.69,3.15-6.17,3.65-.31-.32-.64-.62-.98-.91l.07.06c-.52-.66-1.44-.51-2.05-1.01,0,0,0,.1,0,.1-.8-4.78.9-7.13,6.03-6.16,1.43.44,1.85,1.86,2.76,2.81.12.48.24.97.36,1.45Z"/>
      <path class="cls-2" d="m19.28,131.28c-.93-1.51.6-3.45-.85-4.88.37-2.38.74-4.77,1.11-7.15,1.85-2.8,1.36-6.04,1.71-9.11.2-1.77-.25-3.69,1.44-5.02.55-.16,1.04-.05,1.46.32-.88,8.75-1.25,17.6-4.88,25.84Z"/>
      <path class="cls-2" d="m62.42,147.29c1.43-1.12,2.89-2,4.82-2.21,1.48-.16,3.17-1.04,3.68.96.49,1.9-.41,3.52-2.57,4.02-1.59.37-3.19.7-4.78,1.04-.38-1.27-.76-2.54-1.15-3.82Z"/>
      <path class="cls-2" d="m141.17,71.13c3.05-3.07,3.39-3.15,5-1.05.49,1,1.44,1.63,2.06,2.52,0,0-.02-.08-.02-.08-.08,2.62-1.95,3.49-4.06,4.13-.32-.25-.65-.51-.97-.76-.25-.5-.58-.93-1.06-1.24l-.02-.02c-.69-1.06-.22-2.44-.94-3.5Z"/>
      <path class="cls-1" d="m74.63,116.95c-1.16-.58-2.34-1.12-3.46-1.77-1.02-.59-2.83-.54-2.46-2.4.2-1.02.34-2.39,1.95-2.33,1.5.05,2.93.26,3.55,1.97.44,1.21.97,2.39,1.45,3.58.02.71-.32,1.03-1.03.95Z"/>
      <path class="cls-1" d="m60.11,89.35c.57,2.71,2.95,6.03.1,7.99-3.3,2.26-2.14-.76-1.83-2.39.34-1.77.58-3.55.86-5.33.2-.36.49-.45.87-.27Z"/>
      <path class="cls-2" d="m115.11,84.53c-.75,1.2-1.95.91-3.06.9-1.56-2.24-2.71-4.59-2.29-7.43,2.36,1.71,4.47,3.61,5.34,6.53Z"/>
      <path class="cls-2" d="m110.94,117.23c-5.27,0-3.61-3.83-3.5-6.6.04-.97.49-.96,3.64,2.58-.05,1.34-.1,2.68-.15,4.02Z"/>
      <path class="cls-2" d="m61.19,121.82c.1,2.61-1.48,4.19-3.43,5.55-1.37-2.74-1.63-5.22,1.68-6.79,1.23-.58,1.76,0,1.74,1.24Z"/>
      <path class="cls-1" d="m162.69,109.89c-2.69-.91-5.55-1.68-4.22-5.59.13-.27.32-.5.55-.69,2.8.56,3.61,3.03,4.89,5.05-.41.41-.82.82-1.23,1.23Z"/>
      <path class="cls-2" d="m36.07,145.27c-1.19.67-2.38,1.33-3.57,2-.12-2.27-.31-4.55-.33-6.82,0-.83-.68-2.05.58-2.39.25-.07,1.04,1.38,1.39,2.2.71,1.64,1.29,3.34,1.92,5.01Z"/>
      <path class="cls-2" d="m83.23,57.86c-.14,1.29,0,3.03-1.63,3.18-1.64.15-1.31-1.56-1.37-2.61-.08-1.34.02-2.99,1.63-3.14,1.67-.15,1.28,1.5,1.38,2.57Z"/>
      <path class="cls-2" d="m99.29,82.26c-.08-.32-.19-.63-.24-.95-.32-2.4-.63-4.8-.95-7.19,2.36,1.82,2.61,4.56,3.16,7.16-.32,1-.73,1.82-1.98.98Z"/>
      <path class="cls-2" d="m196.08,142.28c-.43-.04-.85-.07-1.28-.11-.49-2.72-.98-5.44-1.46-8.16.42-.07-.84-1.8.7-.71.37.26.55.78.82,1.19.41,2.6.81,5.2,1.22,7.8Z"/>
      <path class="cls-1" d="m99.29,82.26c.66-.33,1.32-.65,1.98-.98.77,1.23,3.08,2.05,1.32,3.96-.58.63-2.1,1.26-2.61.95-1.45-.89-1-2.5-.68-3.92Z"/>
      <path class="cls-1" d="m70.09,103.19c1.16,1,1.68,2.31,1.9,3.75.14.93-.31,1.78-1.27,1.36-1.63-.7-1.27-2.42-1.39-3.81-.04-.46-.34-1.34.76-1.3Z"/>
      <path class="cls-1" d="m77.97,137.06c-2.03.14-2.51-1.22-2.76-2.81.68-.83,1.58-1.26,2.51-.64,1.44.97.54,2.27.25,3.45Z"/>
      <path class="cls-2" d="m107.53,50.66c.95.17,1.36.74,1.16,1.69-.17.8-.45,1.68-1.4,1.66-.99-.02-1.21-.9-1.2-1.75.02-.91.49-1.47,1.43-1.6Z"/>
      <path class="cls-2" d="m126.84,107.23c-.15.84-.64,1.57-1.55,1.24-.63-.23-1.39-.95-1.49-1.56-.13-.8.54-1.45,1.54-1.32.92.12,1.34.74,1.5,1.64Z"/>
      <path class="cls-2" d="m60.11,89.35c-.26.21-.55.3-.87.27-.76-2.08-.35-4.06.58-5.98.92,1.86.61,3.78.29,5.71Z"/>
      <path class="cls-2" d="m57.4,64.39c-.2.81-.17,1.82-1.27,1.68-.33-.04-.79-.96-.74-1.43.04-.5.53-1.23.97-1.37.9-.28.82.64,1.05,1.12Z"/>
      <path class="cls-1" d="m24.16,105.44c-.5.05-1,.1-1.5.15-.33-2.11-1.05-4.27.78-6.11.53.02,1.06.04,1.59.06-.29,1.97-.57,3.93-.86,5.9Z"/>
      <path class="cls-2" d="m71.26,122.48c1.04.49,1.68.97,1.61,1.89-.06.82-.77,1.07-1.36.81-.48-.21-1.01-.83-1.06-1.31-.05-.44.52-.94.81-1.39Z"/>
      <path class="cls-1" d="m129.47,122.57c-.76-.37-2.43-.32-1.44-1.7.7-.98,1.75-.25,2.35.68-.3.34-.61.68-.91,1.03Z"/>
      <path class="cls-1" d="m159.05,42.23c-.08,1.14-.69,1.91-1.68,2.44-.39-1.46.1-2.32,1.68-2.44Z"/>
      <path class="cls-2" d="m51.72,122.52c-.8.53-1.96,1.42-2.32.04-.31-1.2,1.18-1.2,2.14-1.25.06.4.12.81.18,1.21Z"/>
      <path class="cls-1" d="m145.8,50.72c-1.14.57-1.56.96-1.83.88-.32-.1-.68-.6-.71-.94-.02-.21.57-.65.88-.65.41,0,.81.33,1.66.72Z"/>
      <path class="cls-2" d="m71.92,128.67c-.3.11-.58.21-.86.31-.1-.27-.35-.63-.25-.79.12-.21.52-.27.79-.39.1.28.21.57.32.87Z"/>
      <path class="cls-2" d="m117.32,178.05s.42-.02.42-.02c.38.85.18,1.48-.75,1.74-.16.04-.57-.26-.61-.45-.15-.72.25-1.12.94-1.27Z"/>
      <path class="cls-2" d="m132.69,109.35l-.43.1s-.42-.14-.42-.14c-.16-.37-.31-.74-.46-1.1,1.06-.33,1,.62,1.31,1.14Z"/>
      <path class="cls-1" d="m75.66,116c.46.74,1.22,1.42.42,2.38-.48-.48-.96-.95-1.45-1.43.34-.31.68-.63,1.03-.95Z"/>
      <path class="cls-2" d="m108.1,87.12c.04-.11.08-.33.12-.33.14,0,.3.05.41.14.04.03-.07.23-.11.35-.14-.05-.28-.11-.43-.16Z"/>
      <path class="cls-1" d="m43.31,146.16c-.19-.11-.37-.21-.56-.32.1,0,.26-.05.3,0,.09.11.12.27.18.41,0,0,.08-.09.08-.09Z"/>
      <path class="cls-2" d="m132.47,184.29l-.9.23c.17-.2.33-.39.5-.59.14.12.27.24.4.36Z"/>
      <polygon class="cls-1" points="110.8 195.73 110.65 195.46 110.96 195.48 110.8 195.73"/>
      <path class="cls-2" d="m121.27,195.12c.29.27.59.54.88.81,0,0-.37.1-.37.1,0,0-.37-.1-.37-.1-.12-.26-.17-.53-.15-.81Z"/>
      <path class="cls-2" d="m159.02,103.61c-.06.33-.24.57-.55.69.18-.23.37-.46.55-.69Z"/>
      <path class="cls-3" d="m56.19,35.75c-.18-.85.35-.98,1.01-.99"/>
      <path class="cls-2" d="m122.24,195.97c1.43-.23,2.93-.71,3.9.95-1.41.11-2.89.55-3.9-.95Z"/>
      <path class="cls-2" d="m126.24,196.97c.9-.21,1.69-.22,1.91.94-.84.1-1.6.03-1.91-.94Z"/>
      <path class="cls-2" d="m131.98,131.47c-.42,1.22.15,4.04-3.45,3.13-.69-.18-1.67.7-2.32.48-1.5-.5-2.53,3.41-3.76.61-.94-2.13.32-4.28,2.65-5.08,1.39-.47,2.81-.69,4.06-1.59,2.28-1.63,3.23-.84,2.82,2.45Z"/>
      <path class="cls-3" d="m100.2,98.47c.61-2.19,2.24-2.99,4.33-3.07.38-.01.77.31,1.15.47-1.55,1.09-3.1,2.17-4.65,3.26-.38-.09-.65-.32-.83-.67Z"/>
      <path class="cls-3" d="m69.19,140.3c1.22-.75,1.69.02,2.05,1.01-1.05.41-1.65-.1-2.05-1.01Z"/>
      <path class="cls-3" d="m71.17,141.25c.33.3.66.61.98.91-.57-.05-1.14-.08-.98-.91Z"/>
      <path class="cls-2" d="m82.82,143.11c-.12-.07-.22-.13-.32-.19.11-.16.22-.32.33-.47.1.11.27.23.27.34,0,.11-.18.22-.28.32Z"/>
      <path class="cls-3" d="m100.51,104.74c-.34.05-.67.11-1.01.16.2-.18.41-.36.61-.54.13.13.27.25.4.38Z"/>
      <path class="cls-2" d="m100.2,98.47c.28.22.56.44.83.66-.3.02-.59.03-.89.04,0,0-.19-.39-.19-.39l.26-.34-.02.02Z"/>
      <path class="cls-3" d="m100.22,98.45c-.17.23-.19.47-.08.73,0,0-.19-.37-.19-.37l.27-.35Z"/>
      <path class="cls-1" d="m26.15,83.53c.1-.64.2-1.27.3-1.91.89.87.98,1.86.48,2.96-.26-.35-.52-.7-.78-1.05Z"/>
      <path class="cls-3" d="m141.17,71.13c1.56.84,1.59,2.07.94,3.5-2.06-.7-1.38-2.13-.94-3.5Z"/>
      <path class="cls-3" d="m148.24,72.6c-1.37-.28-2.05-1.13-2.06-2.52,1.18.44,2.53.74,2.06,2.52Z"/>
      <path class="cls-3" d="m142.13,74.65c.92-.07.94.63,1.06,1.24-.62-.18-1.21-.4-1.06-1.24Z"/>
      <path class="cls-3" d="m139.39,69.43c.15.32.31.63.46.95-.37-.03-.74-.06-1.11-.09.22-.29.43-.57.65-.86Z"/>
      <path class="cls-3" d="m13.16,141.21s5.51-9.78,6.84-24.24-.91-86.83,77.51-96.92c0,0-79.25,10.46-75.2,101.07.41,9.25-9.16,20.09-9.16,20.09Z"/>
      <path class="cls-3" d="m94.72,158.74c.03-.64,2.6,1.02,5.98.38,3.39-.64,8.24-5.22,8.76-5.15,2.06.27-1.68,3.87-7.68,5.05-5.58,1.1-7.14,1.49-7.07-.29Z"/>
    </g>
  </g>
</svg>
